Sinbad: legenden om de sju haven (2003)

Anklagad och satt i arrest för att ha stulit världens dyrbaraste och mest mytomspunna skatt, Fredens bok, är alternativen få. Om Sinbad inte hittar och återfinner boken kommer hans bäste vän Proteus att dö. Sinbad och besättningen hissar därför segel och sätter kurs mot tidernas största utmaning. Men allt går inte riktigt enligt planerna. Proteus vackra flickvän Marina har gömt sig i skeppet eftersom hon inte litar på att Sinbad kommer att lyckas med sitt uppdrag.


Fakta om filmen

Originaltitel

Sinbad: Legend of the Seven Seas

Land, år, längd
USA år 2003, 85 min

Regissör

Tim Johnson
Patrick Gilmore

Manus
John Logan

Skådespelare
Brad Pitt
Catherine Zeta-Jones
Michelle Pfeiffer
Joseph Fiennes
Dennis Haysbert
Timothy West
Adriano Giannini

Inspelnings info
WS F 1:1.85 - Dolby Digital/DTS/SDDS
Produktions info

Tom Finan - Klippning

Andy Nelson - Ljud

Anna Behlmer - Ljud

Harry Gregson-Williams - Musik

Mireille Soria - Producent

Jeffrey Katzenberg - Producent





Sinbad.Legend.Of.The.Seven.Seas.2003.Swesub.XviD. -Lindoff.avi
Format                           : AVI
Format/Info                      : Audio Video Interleave
File size                        : 699 MiB
Duration                         : 1h 22mn
Overall bit rate                 : 1 182 Kbps
Writing application              : VirtualDubMod 1.5.10.2 (build 2542/release)
Writing library                  : VirtualDubMod build 2542/release

Video
ID                               : 0
Format                           : MPEG-4 Visual
Format profile                   : Advanced Simple@L5
Format settings, BVOP            : Yes
Format settings, QPel            : No
Format settings, GMC             : No warppoints
Format settings, Matrix          : Default (H.263)
Muxing mode                      : Packed bitstream
Codec ID                         : XVID
Codec ID/Hint                    : XviD
Duration                         : 1h 22mn
Bit rate                         : 1 035 Kbps
Width                            : 576 pixels
Height                           : 304 pixels
Display aspect ratio             : 1.895
Frame rate                       : 23.976 fps
Color space                      : YUV
Chroma subsampling               : 4:2:0
Bit depth                        : 8 bits
Scan type                        : Progressive
Bits/(Pixel*Frame)               : 0.247
Stream size                      : 612 MiB (88%)
Writing library                  : XviD 1.2.1 (UTC 2008-12-04)

Audio
ID                               : 1
Format                           : MPEG Audio
Format version                   : Version 1
Format profile                   : Layer 3
Mode                             : Joint stereo
Mode extension                   : MS Stereo
Codec ID                         : 55
Codec ID/Hint                    : MP3
Duration                         : 1h 22mn
Bit rate mode                    : Variable
Bit rate                         : 134 Kbps
Channel(s)                       : 2 channels
Sampling rate                    : 48.0 KHz
Stream size                      : 79.2 MiB (11%)
Alignment                        : Aligned on interleaves
Interleave, duration             : 24 ms (0.58 video frame)
Interleave, preload duration     : 137 ms
Writing library                  : LAME3.93 
Encoding settings                : -m j -V 4 -q 2 -lowpass 17.5 --abr 134

